<svg xmlns="http://www.w3.org/2000/svg" version="1.1" xmlns:xlink="http://www.w3.org/1999/xlink" xmlns:svgjs="http://svgjs.dev/svgjs" width="1000" height="908" viewBox="0 0 1000 908"><g transform="matrix(1,0,0,1,0.8160055351717688,0.36829017440345524)"><svg viewBox="0 0 272 247" data-background-color="#ffffff" preserveAspectRatio="xMidYMid meet" height="908" width="1000" xmlns="http://www.w3.org/2000/svg" xmlns:xlink="http://www.w3.org/1999/xlink"><g id="tight-bounds" transform="matrix(1,0,0,1,-0.22163564697558513,-0.09997365579206985)"><svg viewBox="0 0 272.44358915254236 247.2" height="247.2" width="272.44358915254236"><g><svg viewBox="0 0 272.44358915254236 247.2" height="247.2" width="272.44358915254236"><g><svg viewBox="0 0 272.44358915254236 247.2" height="247.2" width="272.44358915254236"><g><svg viewBox="0 0 272.44358915254236 247.2" height="247.2" width="272.44358915254236"><g><svg viewBox="0 0 272.44358915254236 247.2" height="247.2" width="272.44358915254236"><path d="M271.806 53.02C270.525 27.36 266.875 20.227 266.875 20.227 255.667-6.202 241.681-0.506 229.116 3.292 206.932 3.446 184.838 9.091 162.706 12.119 116.251 12.581 69.398 4.986 23.174 23.717 18.832 29.464-4.505 24.846 0.772 56.304 2.156 69.39 7.202 83.913 7.048 95.922 7.74 98.026 8.701 93.202 9.11 96.23 10.545 104.39 12.889 100.541 14.81 105.365 12.133 118.246 14.054 128.971 15.886 140.21 12.658 143.135 8.521 141.749 6.664 151.449 6.472 158.479 5.434 157.145 4.295 156.837 3.462 156.632 1.784 157.402 2.066 159.608 3.027 167.152-1.098 171.514 1.49 178.904-0.291 186.91 2.719 193.838 2.309 202.511 2.258 204.255 2.54 205.744 2.988 206.154 4.973 208.361 2.079 212.672 2.386 217.342 22.751 249.262 44.845 227.195 65.71 241.872 71.128 231.608 67.055 245.516 69.219 243.36 70.91 240.846 72.139 251.263 74.048 245.362 74.342 243.668 73.894 239.665 74.944 240.435 75.495 240.846 75.982 240.743 76.059 238.382 76.174 234.841 75.162 237.048 74.893 235.201 77.801 225.861 77.083 248.081 79.811 247.158 79.683 244.438 78.889 240.538 80.516 241.051 82.13 237.151 82.181 233.918 83.615 242.693 83.667 244.592 83.923 245.926 84.333 246.85 88.816 237.305 93.273 250.237 97.973 245.926 100.855 241.205 103.622 248.492 106.542 246.696 107.567 245.259 108.604 242.693 109.59 247.004 121.669 247.928 134.541 244.079 145.991 247.158 176.59 241.41 209.289 249.518 241.553 241.923 249.161 238.998 257.064 234.841 264.479 231.506 264.479 231.506 270.487 222.371 270.487 181.316S271.767 145.393 271.959 112.703C272.152 80.013 273.048 78.679 271.767 53.02Z" opacity="1" fill="#ed1703" data-fill-palette-color="tertiary"></path><g transform="matrix(1,0,0,1,55.76831999999999,26.230666666666668)"><svg width="160.90694915254238" viewBox="3 -35.4 29.25 35.4" height="194.73866666666666" data-palette-color="#ffffff"><path d="M15 0L4 0 4-27.3 3-32.4 4-35.4 29.75-35.4 32.25-33.9 28.95-25.4 24.45-25.9 14.5-25.9 15-21.9 27.45-21.9 27.45-13.65 20.4-13.65 15-14.15 15-7.95 15.55-2.95 15 0Z" opacity="1" transform="matrix(1,0,0,1,0,0)" fill="#ffffff" class="undefined-text-0" data-fill-palette-color="quaternary" id="text-0"></path></svg></g></svg></g></svg></g></svg></g><g></g></svg></g><defs></defs></svg><rect width="272.44358915254236" height="247.2" fill="none" stroke="none" visibility="hidden"></rect></g></svg></g></svg>